<svg width="32" height="32" fill="none" xmlns="http://www.w3.org/2000/svg"><path d="M14.308 13.737c.606 1.072-.75 1.405-1.387 1.466-.964.094-1.164-.464-.976-1.166a1.262 1.262 0 011.085-.951 1.342 1.342 0 011.278.65zM18.094 11.752c-.705 5.417 8.8 4.29 8.618 8.601.938-1.224 1.34-4.55-1.42-6.263-2.458-1.526-5.662-.69-7.198-2.338zM23.568 9.71l-.187-.171c.063.057.125.118.187.17z" fill="#ed007a"/><path d="M25.777 13.658l-.006-.008a3.593 3.593 0 00-.292-.459 2.357 2.357 0 00-1.302-.885 5.548 5.548 0 00-1.061-.168c-.363-.026-.733-.041-1.107-.061-.75-.042-1.518-.119-2.268-.334a6.315 6.315 0 01-1.111-.425 4.744 4.744 0 01-.972-.71c-.578-.539-1.032-1.151-1.486-1.744a20.61 20.61 0 00-1.378-1.714 6.286 6.286 0 00-1.688-1.324 5.814 5.814 0 00-2.1-.603 4.948 4.948 0 012.244.275 5.934 5.934 0 011.947 1.242c.367.346.711.715 1.031 1.105 2.381-.471 4.312-.053 5.796.759l.034.017a7.31 7.31 0 011.508 1.091c.316.292.61.607.88.942l.02.027c.877 1.115 1.31 2.275 1.311 2.977zM25.776 13.657l-.006-.011.006.011zM11.126 5.92c.608.09 1.228.332 1.627.795.4.464.546 1.066.662 1.64.093.444.168.897.342 1.318.084.206.208.386.311.58.085.16.241.306.301.478a.152.152 0 01-.018.153c-.212.235-.784-.027-1-.132a3.252 3.252 0 01-.983-.754c-.865-.965-1.312-2.354-1.285-3.619a4.22 4.22 0 01.043-.458zM21.287 16.806c-1.313 3.68 4.64 6.147 2.41 9.888 2.288-.95 3.375-3.817 2.425-6.092-.83-1.997-3.287-2.726-4.835-3.796zM13.413 21.617a5.18 5.18 0 011.163-.664c.42-.168.855-.294 1.3-.376.882-.169 1.755-.21 2.488-.507.362-.142.695-.35.983-.612.279-.26.492-.583.623-.942.133-.378.188-.78.16-1.182a4.347 4.347 0 00-.289-1.255 2.883 2.883 0 01.734 2.613c-.114.49-.362.938-.715 1.295-.35.346-.77.61-1.234.773-.441.155-.902.25-1.37.282-.45.038-.884.048-1.312.073a8.433 8.433 0 00-2.53.502zM21.81 28.085c-.132.106-.264.218-.41.316-.146.096-.299.182-.458.256a2.372 2.372 0 01-1.063.242c-.998-.019-1.703-.765-2.115-1.608-.281-.574-.475-1.195-.809-1.742-.477-.782-1.294-1.412-2.25-1.296-.39.05-.755.225-.972.565-.57.888.248 2.132 1.292 1.956a1.14 1.14 0 00.258-.071.936.936 0 00.23-.14c.146-.122.256-.282.318-.462.069-.188.084-.39.044-.587a.806.806 0 00-.336-.502c.201.095.357.263.436.471.082.214.103.447.061.672a1.332 1.332 0 01-.298.634 1.302 1.302 0 01-.281.24 1.637 1.637 0 01-1.064.234 1.946 1.946 0 01-.947-.412c-.322-.257-.562-.592-.854-.88a4.056 4.056 0 00-1.164-.854c-.3-.133-.615-.23-.938-.292a6.169 6.169 0 00-.49-.08c-.075-.007-.443-.089-.494-.04.507-.47 1.06-.886 1.65-1.244a8.017 8.017 0 011.935-.831 5.497 5.497 0 012.164-.167c.374.045.74.14 1.088.282.365.147.702.356.995.618.291.275.526.605.692.97.15.34.262.698.334 1.065.214 1.095.135 2.793 1.563 3.043.074.015.15.025.225.032l.233.006c.16-.012.32-.035.477-.069.326-.077.644-.186.948-.325zM13.514 26.892l-.037-.03.037.03zM12.232 11.434c-.051.2-.142.389-.267.554a2.166 2.166 0 01-.888.683c-.316.137-.65.225-.991.262-.074.01-.151.015-.225.02a1.01 1.01 0 00-.94.754 2.57 2.57 0 00-.058.317c-.034.277-.04.565-.07.914a5.428 5.428 0 01-.504 1.706c-.34.718-.72 1.296-.632 2.123.058.537.332.896.695 1.268.657.674 2.126.975 1.797 2.637-.197.991-1.834 2.032-4.135 2.395.229-.035-.293-.919-.326-.975-.247-.388-.517-.754-.712-1.175-.385-.816-.563-1.76-.405-2.655.165-.942.86-1.664 1.436-2.383.686-.856 1.406-1.978 1.565-3.089.038-.27.064-.606.124-.942.057-.371.173-.731.343-1.066.116-.22.27-.417.452-.585a.585.585 0 00.113-.712L4.936 4.86l5.268 6.53a.656.656 0 001.009.022.449.449 0 00.014-.565c-.344-.442-.708-.892-1.06-1.335L8.84 7.864l-2.66-3.29L2.551 0l3.97 4.278 2.832 3.146L10.766 9c.469.53.938 1.044 1.406 1.601l.077.094.017.146c.023.198.012.399-.034.593z" fill="#ed007a"/><path d="M13.447 26.846a3.538 3.538 0 01-.673-.688c.206.247.431.477.673.688z" fill="#ed007a"/></svg>
